<svg width="153" height="159" viewBox="0 0 153 159" fill="none" xmlns="http://www.w3.org/2000/svg">
<path fill-rule="evenodd" clip-rule="evenodd" d="M68.9822 42.4098L69.2782 42.5712L68.9418 42.6787L68.6458 42.5039L68.9687 42.3964L68.9822 42.4098ZM66.6545 44.7898L66.7083 44.8302C66.6545 44.4671 66.4931 43.7948 66.7083 43.499C67.408 43.5662 67.8923 43.8217 68.2691 44.1444C68.6727 44.4671 68.9822 44.8974 69.2244 45.4083C69.332 45.6638 69.4396 45.9596 69.4665 46.242C69.5876 47.1698 69.9105 47.9497 70.3815 48.6086C71.5251 50.2625 73.6509 51.0827 76.611 50.8676L76.8666 50.8407L77.1223 51.0424C77.3779 51.271 77.647 51.5533 77.8892 51.7819C78.1852 52.1315 78.535 52.5215 78.6695 52.9383L78.7234 53.1938C79.7997 52.7904 80.8896 52.3467 82.0198 51.9298C80.6743 51.1096 79.275 50.3432 78.1986 49.2406L77.7277 48.622C77.6066 48.4069 77.4048 48.1245 77.4721 47.8018C80.6743 47.1429 82.9481 45.4756 83.9034 42.5443C83.0289 42.9073 81.8987 43.1494 80.6743 43.2569C79.423 43.3645 78.1448 43.23 77.0953 42.988C76.9743 42.6787 77.0953 42.356 77.203 42.1005C77.499 41.3475 78.1044 40.7559 78.5485 40.1643C77.1223 40.3256 75.8037 40.6483 74.7004 41.1459C73.6509 41.6434 72.6822 42.3426 72.4535 43.6872C71.8615 43.0015 71.0811 42.3022 70.072 41.9795C69.5338 41.8047 68.8476 41.7644 68.2825 41.9123C67.7443 42.0468 67.3138 42.3291 66.9371 42.6115C66.668 42.3829 66.7621 41.7644 66.9101 41.4686C68.1211 41.7644 69.1302 41.2534 69.3724 40.366C68.8073 40.2315 67.9327 40.1912 67.5425 40.5004L67.8654 39.8819L67.9865 39.7071L68.2825 39.9088C68.5785 40.0701 68.9284 40.1777 69.3993 40.097C69.924 40.0164 70.2604 39.8012 70.664 39.5323C70.4487 39.1423 70.1258 38.9003 69.6145 38.8196C70.6506 38.6045 71.6597 38.3625 72.144 37.6095C71.9422 37.3809 71.6597 37.1792 71.2695 37.1388C70.6102 37.1119 70.1124 37.354 69.6953 37.6095C69.2782 37.9053 68.9284 38.2549 68.6054 38.5507C68.6054 37.9591 68.592 37.3809 68.3498 37.0313C67.8654 37.1657 67.4753 37.3943 67.3003 37.8246C67.0985 38.3221 67.3542 38.8869 67.6098 39.223C67.3945 39.4785 67.2465 39.7205 67.0851 40.0029C67.0043 39.3844 66.8698 38.7927 66.4258 38.5507C65.9818 38.7793 65.6185 39.2096 65.7261 39.8416C65.8069 40.3794 66.2105 40.7559 66.4931 41.1055C66.2105 42.0333 65.7261 44.1444 66.668 44.7764L66.6545 44.7898ZM135.892 127.969C123.178 145.449 100.547 156.274 76.611 156.314H76.4361C52.3522 156.314 29.681 145.342 16.9125 127.606C21.514 125.212 26.0483 122.685 30.5421 120.116C41.3059 133.549 58.9584 141.725 76.611 141.348C94.8824 140.958 111.903 133.173 122.276 120.452C126.703 123.021 131.304 125.549 135.892 127.956V127.969ZM148.446 97.2575C151.796 95.4288 152.845 90.9108 152.845 90.9108C152.845 90.9108 147.665 90.3864 144.544 92.7933C143.373 93.6808 142.324 95.3616 141.597 96.76C142.27 93.7614 142.768 90.7495 142.996 87.7644C144.14 87.5761 146.939 86.9038 149.764 84.6717C152.697 82.3589 152.912 77.8006 152.912 77.8006C152.912 77.8006 147.84 78.1906 145.243 81.0277C144.315 82.0362 143.588 83.7843 143.117 85.223C143.212 82.1169 143.091 79.0377 142.768 75.9988C143.79 75.6358 146.495 74.5332 148.89 71.8573C151.311 69.1143 150.76 64.6904 150.76 64.6904C150.76 64.6904 145.916 65.9409 143.911 69.0874C143.091 70.3648 142.687 72.4221 142.512 73.9684C142.041 70.701 141.355 67.5142 140.467 64.3946C141.261 63.9912 143.817 62.4314 145.768 59.285C147.638 56.2461 146.374 52.0643 146.374 52.0643C146.374 52.0643 141.866 54.0678 140.494 57.4832C139.875 58.9757 139.888 61.3826 140.023 62.9424C138.973 59.5943 137.668 56.394 136.175 53.3283C136.928 52.7904 139.121 50.8945 140.48 47.5329C141.759 44.2654 139.781 40.4466 139.781 40.4466C139.781 40.4466 135.839 43.1359 135.031 46.6858C134.708 48.2186 135.125 50.4642 135.529 51.9433C133.901 48.7968 132.085 45.8655 130.107 43.1763C130.78 42.4367 132.461 40.2718 133.161 36.9237C133.834 33.5487 131.277 30.2274 131.277 30.2274C131.277 30.2274 127.927 33.468 127.779 37.0044C127.698 38.4431 128.385 40.2987 128.95 41.6703C126.851 38.981 124.604 36.5875 122.249 34.5571C122.68 33.8714 124.079 31.4107 124.173 27.8743C124.241 24.5127 121.227 21.7159 121.227 21.7159C121.227 21.7159 118.522 25.4271 119.007 28.8693C119.249 30.5232 120.581 32.6612 121.429 33.831C118.549 31.3166 115.724 29.2189 113.087 27.4844C113.288 26.9868 114.405 24.2707 113.88 20.5864C113.356 17.3324 109.952 15.154 109.952 15.154C109.952 15.154 107.974 19.188 109.01 22.4151C109.629 24.2303 111.741 26.3549 112.616 27.1885C110.719 25.9784 108.835 24.9295 107.14 24.0421C106.696 23.3025 105.068 20.9091 102.794 20.2233C101.421 19.7796 99.1745 20.0889 98.0981 20.2906C95.7032 19.5376 94.3308 19.2552 94.425 19.2148C94.3308 19.3359 95.5283 19.6451 97.6541 20.3847H97.4792C97.4792 20.3847 98.7574 22.7647 101.758 24.2841C103.628 25.1985 105.902 24.701 106.857 24.432C109.01 25.5884 111.351 27.0003 113.8 28.708C113.477 28.6004 109.696 27.0944 107.422 27.444C103.991 27.8877 101.22 31.4376 101.22 31.4376C101.22 31.4376 104.691 33.5083 107.866 32.5402C111.768 31.3166 113.786 28.8155 113.813 28.7349C116.06 30.3081 118.388 32.1502 120.742 34.2344C119.518 33.7504 117.513 33.1587 114.997 33.2797C111.647 33.4545 109.077 36.6682 109.077 36.6682C109.077 36.6682 112.979 39.0751 116.37 38.3625C117.971 38.0263 119.949 36.5875 121.065 35.6463C121.213 35.458 121.415 35.2295 121.59 35.0009C124.617 37.7036 127.51 40.9845 130.093 44.7495C129.501 44.2251 126.595 41.7778 124.389 41.3207C120.863 40.5946 116.894 43.0552 116.894 43.0552C116.894 43.0552 119.572 46.2958 122.989 46.4572C127.039 46.6454 129.838 45.0856 130.161 44.8705C132.085 47.7211 133.888 50.8272 135.408 54.1485C134.453 53.0055 132.556 51.0424 130.887 50.3835C127.483 49.0523 123.043 50.8003 123.043 50.8003C123.043 50.8003 125.088 54.5384 128.546 55.3049C132.138 56.0982 134.977 55.3318 135.852 55.0628C137.197 58.1286 138.355 61.3288 139.296 64.7039C138.476 63.3592 137.076 61.3423 135.623 60.4683C132.475 58.5051 127.672 59.5136 127.672 59.5136C127.672 59.5136 129.098 63.6282 132.421 65.0131C135.744 66.4116 138.624 66.183 139.646 66.0485C140.521 69.3563 141.126 72.7582 141.449 76.2274C140.871 74.7483 139.821 72.4086 138.476 71.2388C135.677 68.7243 130.672 68.8722 130.672 68.8722C130.672 68.8722 131.372 73.2961 134.466 75.2324C137.588 77.2224 140.561 77.5182 141.57 77.572C141.839 80.9471 141.839 84.349 141.516 87.7778C141.193 86.2046 140.521 83.6363 139.417 82.211C137.023 79.199 131.964 78.4864 131.964 78.4864C131.964 78.4864 131.883 83.0313 134.641 85.5457C137.413 88.0736 140.359 88.9073 141.395 89.1225C141.045 92.1075 140.494 95.0926 139.646 98.0508L139.579 98.387C139.498 96.7196 139.283 94.4203 138.476 92.9547C136.592 89.4989 131.654 87.8854 131.654 87.8854C131.654 87.8854 130.78 92.4437 133.107 95.4557C135.354 98.387 138.032 99.7585 139.108 100.175C138.26 103.268 137.103 106.253 135.785 109.09C136.04 107.41 136.202 104.962 135.69 103.308C134.439 99.503 129.744 97.0289 129.744 97.0289C129.744 97.0289 128.021 101.453 129.811 104.868C131.56 108.23 133.982 110.045 134.991 110.704C133.645 113.38 132.098 115.961 130.362 118.395C130.86 116.795 131.331 114.684 131.089 113.124C130.51 109.09 126.259 105.769 126.259 105.769C126.259 105.769 123.729 109.911 124.954 113.649C126.03 117.145 128.021 119.35 128.977 120.278C128.748 120.6 128.506 120.896 128.25 121.205C126.326 120.143 124.429 119.094 122.572 118.019L121.725 117.508L121.119 118.288C111.19 130.927 94.5461 138.686 76.5841 139.089C59.2948 139.466 42.0324 131.277 31.7127 117.938L31.1072 117.145L30.2596 117.642C28.349 118.758 26.4115 119.834 24.4606 120.95L23.9493 120.278C24.8912 119.363 26.8825 117.158 27.9857 113.649C29.1698 109.897 26.6672 105.769 26.6672 105.769C26.6672 105.769 22.3886 109.09 21.81 113.124C21.5948 114.684 22.0657 116.809 22.5635 118.395C20.8279 115.961 19.294 113.38 17.9216 110.704C18.9173 110.045 21.3526 108.23 23.0882 104.868C24.8912 101.453 23.1824 97.0289 23.1824 97.0289C23.1824 97.0289 18.4867 99.5165 17.2355 103.308C16.6838 104.949 16.9125 107.41 17.1278 109.09C15.7958 106.253 14.6791 103.268 13.8045 100.175C14.8674 99.7451 17.5584 98.387 19.8053 95.4557C22.133 92.4437 21.2449 87.8854 21.2449 87.8854C21.2449 87.8854 16.2802 89.4989 14.41 92.9547C13.6431 94.4203 13.3874 96.7331 13.3201 98.4004L13.2394 98.0643C12.3918 95.1061 11.8267 92.121 11.5172 89.1359C12.5263 88.9342 15.446 88.1005 18.2446 85.5592C20.9893 83.0447 20.922 78.4998 20.922 78.4998C20.922 78.4998 15.8631 79.2125 13.4681 82.2245C12.3649 83.6498 11.7056 86.2046 11.3827 87.8182C11.0598 84.3624 11.0598 80.9471 11.3154 77.5855C12.3245 77.5182 15.298 77.2224 18.4195 75.2458C21.541 73.3095 22.2137 68.8857 22.2137 68.8857C22.2137 68.8857 17.222 68.7378 14.3831 71.2523C13.0914 72.4221 12.0016 74.7483 11.4096 76.2274C11.7594 72.7582 12.3783 69.3698 13.2394 66.062C14.2351 66.1964 17.1144 66.425 20.4511 65.0266C23.7744 63.6416 25.2006 59.527 25.2006 59.527C25.2006 59.527 20.3973 58.5185 17.2489 60.4817C15.8227 61.3423 14.3965 63.3458 13.5892 64.7173C14.5176 61.3557 15.6882 58.142 17.074 55.0763C17.9082 55.3452 20.7202 56.1116 24.3395 55.3183C27.757 54.5519 29.8559 50.8138 29.8559 50.8138C29.8559 50.8138 25.389 49.0523 22.0253 50.3969C20.33 51.0558 18.4598 53.0324 17.4911 54.1619C19.0115 50.8407 20.8009 47.7346 22.725 44.8839C23.0613 45.0991 25.8734 46.6589 29.8829 46.4706C33.3273 46.3093 35.9913 43.0687 35.9913 43.0687C35.9913 43.0687 31.9683 40.608 28.497 41.3341C26.3039 41.7913 23.4784 44.1713 22.8191 44.7495C25.3621 41.0786 28.1203 37.8649 31.0669 35.2429C31.9011 35.9959 33.9058 37.5153 36.9197 38.2145C40.2026 38.9541 43.5528 36.5741 43.5528 36.5741C43.5528 36.5741 40.4582 33.1856 36.9869 32.9436C35.628 32.8494 33.8385 33.4142 32.4931 33.9386C34.7265 31.9754 36.9197 30.2274 39.059 28.7349C39.1128 28.8021 41.1444 31.3166 45.0059 32.5402C48.1812 33.5083 51.666 31.4376 51.666 31.4376C51.666 31.4376 48.8674 27.9012 45.4634 27.444C43.1895 27.0944 39.4491 28.5466 39.0859 28.708C41.5212 27.0137 43.8219 25.6288 45.9747 24.4858C46.9972 24.7547 49.0961 25.1447 50.8722 24.2841C53.886 22.7647 55.1642 20.4116 55.1642 20.4116H55.1373C57.3439 19.6586 58.6086 19.3493 58.4875 19.2283C58.5817 19.2821 57.1421 19.551 54.6933 20.3443C53.6977 20.1561 51.2893 19.7661 49.8362 20.2502C47.3067 21.0436 45.5845 23.948 45.4096 24.2707C43.7681 25.1178 42.0593 26.0859 40.243 27.2154C41.1444 26.4086 43.2703 24.2707 43.8623 22.442C44.9117 19.2283 42.9608 15.1809 42.9608 15.1809C42.9608 15.1809 39.5299 17.3592 39.0455 20.6133C38.4535 24.311 39.5837 27.0137 39.8259 27.5112C37.108 29.2593 34.3094 31.3569 31.4705 33.8848C32.2778 32.6881 33.6367 30.5636 33.8924 28.8962C34.3767 25.4674 31.6723 21.7428 31.6723 21.7428C31.6723 21.7428 28.6316 24.5396 28.6988 27.9012C28.8065 31.4376 30.1923 33.9117 30.6498 34.5975C28.2952 36.601 26.0617 38.9944 23.9493 41.6972C24.5279 40.3256 25.1872 38.47 25.1334 37.0313C25.0123 33.4949 21.6217 30.2543 21.6217 30.2543C21.6217 30.2543 19.0787 33.5756 19.7649 36.9506C20.4242 40.2853 22.133 42.4636 22.7922 43.2031C20.8279 45.8924 19.0115 48.8372 17.3969 51.9702C17.7736 50.4776 18.2042 48.2455 17.8678 46.7126C17.1009 43.1628 13.1587 40.4735 13.1587 40.4735C13.1587 40.4735 11.1808 44.2923 12.4456 47.5598C13.7776 50.9214 15.9976 52.8173 16.7107 53.3551C15.2442 56.4075 13.9525 59.6212 12.903 62.9693C13.0241 61.4095 13.0645 59.0026 12.4456 57.5101C11.0328 54.0947 6.56589 52.0912 6.56589 52.0912C6.56589 52.0912 5.27424 56.273 7.13098 59.3119C9.08191 62.4583 11.6383 64.0047 12.4456 64.4215C11.571 67.5142 10.8579 70.7278 10.387 73.9953C10.2121 72.449 9.80847 70.3917 9.02809 69.1143C7.00989 65.9678 2.1662 64.7173 2.1662 64.7173C2.1662 64.7173 1.61456 69.1412 4.02295 71.8842C6.43134 74.5735 9.13573 75.6627 10.1583 76.0257C9.80847 79.0646 9.70083 82.1438 9.80847 85.2499C9.3241 83.8111 8.62445 82.0631 7.66917 81.0546C5.08587 78.2175 0 77.8275 0 77.8275C0 77.8275 0.255639 82.3858 3.1484 84.6986C5.97388 86.9307 8.78591 87.5896 9.92956 87.7913C10.1717 90.7764 10.6292 93.7883 11.3019 96.7869C10.5888 95.3885 9.53937 93.6942 8.36881 92.8202C5.24733 90.4133 0.0807281 90.9377 0.0807281 90.9377C0.0807281 90.9377 1.11674 95.4557 4.49387 97.2844C7.7499 99.0324 10.7503 99.1938 11.8939 99.1669C12.5936 102.031 13.495 104.801 14.558 107.477C13.6027 106.24 12.3379 104.882 11.1001 104.25C7.54808 102.381 2.4353 103.819 2.4353 103.819C2.4353 103.819 4.3055 108.203 7.97863 109.426C11.5038 110.596 14.4503 110.274 15.7016 110.032C16.9664 112.788 18.4329 115.45 20.0475 117.938C18.8231 116.849 17.222 115.598 15.8093 115.128C11.8805 113.891 7.02335 116.23 7.02335 116.23C7.02335 116.23 9.64701 120.305 13.6027 120.869C17.4104 121.461 20.3838 120.573 21.5275 120.13C21.958 120.735 22.4021 121.34 22.8595 121.918C20.2089 123.411 17.4911 124.876 14.7867 126.275L13.67 126.853L14.3831 127.888L14.5445 128.077C18.5809 135.875 22.9268 143.567 27.757 150.922C30.0981 148.999 31.4032 147.896 33.4483 146.135C45.7459 154.068 60.8421 158.586 76.4899 158.586H76.6648C92.3126 158.559 107.355 154.055 119.679 146.162C121.657 147.91 122.976 148.986 125.277 150.868C130.08 143.58 134.52 135.97 138.529 128.238L139.256 127.216L138.126 126.624C135.354 125.186 132.609 123.72 129.878 122.2C130.403 121.515 130.928 120.829 131.452 120.13C132.596 120.573 135.556 121.461 139.35 120.869C143.292 120.305 145.943 116.23 145.943 116.23C145.943 116.23 141.072 113.891 137.171 115.128C135.744 115.598 134.143 116.849 132.919 117.938C134.52 115.424 135.986 112.788 137.292 110.032C138.489 110.274 141.463 110.596 144.961 109.426C148.634 108.203 150.504 103.819 150.504 103.819C150.504 103.819 145.405 102.394 141.853 104.25C140.601 104.882 139.323 106.24 138.381 107.477C139.485 104.801 140.359 102.031 141.059 99.1669C142.216 99.1938 145.23 99.0324 148.486 97.2844L148.446 97.2575ZM91.2362 150.787C91.0344 151.137 90.9133 151.312 90.6846 151.648C90.8864 151.446 93.1871 150.734 93.6311 150.465C94.0886 150.169 94.2366 149.537 94.2366 149.537C93.066 150.048 92.4606 150.303 91.2362 150.787ZM109.239 141.994L109.683 141.805C109.413 141.657 109.037 141.55 108.633 141.456L108.512 141.751L108.485 142.101C108.66 142.101 108.929 142.074 109.239 141.994ZM110.894 141.093H110.867L110.638 140.945C110.436 140.837 110.167 140.689 109.79 140.568C109.171 140.393 108.66 140.205 108.283 140.084L108.014 140.178C107.785 140.38 107.409 140.783 107.341 141.684C107.288 141.913 107.261 141.994 107.234 142.222V142.249C107.207 142.531 107.153 142.773 107.14 142.948C107.086 143.177 107.072 143.298 107.019 143.513L106.992 143.54C106.992 143.607 106.911 143.728 106.642 143.876L106.144 144.158C105.942 144.253 105.861 144.32 105.646 144.441L105.377 144.158L104.947 143.728C104.651 143.513 104.395 143.311 104.139 143.204L103.117 142.854C103.171 143.5 103.197 143.795 103.238 144.441H103.265C103.44 144.468 104.193 144.548 104.543 145.006C103.547 145.463 103.063 145.705 102.013 146.122C100.762 146.646 100.062 146.888 98.7439 147.305C98.0443 147.493 97.4388 147.587 96.8737 147.574C96.1741 147.547 95.7032 147.332 95.4475 147.009C94.869 146.619 94.5057 145.153 94.5057 145.153C94.3577 145.745 94.2232 146.135 94.2232 146.323C94.1424 146.754 94.1962 147.17 94.3981 147.614C94.721 148.381 95.4206 148.918 96.4432 149.08C97.2639 149.228 98.2461 149.147 99.3628 148.811C99.7934 148.676 100.009 148.609 100.439 148.461C103.44 147.439 104.866 146.78 107.409 145.288C107.933 145.006 108.31 144.71 108.485 144.427C108.66 144.199 108.768 143.916 108.808 143.621C109.736 143.567 110.557 143.284 111.203 142.773L111.311 142.693C112.104 142.034 110.934 141.133 110.88 141.079L110.894 141.093ZM98.3672 144.266C98.4614 143.742 98.5152 143.486 98.569 142.935C97.9232 142.868 97.5465 142.854 96.8872 142.747C96.793 143.298 96.7661 143.553 96.6719 144.105C97.3716 144.172 97.7214 144.199 98.3672 144.266ZM100.264 143.621C100.332 143.042 100.358 142.787 100.466 142.249C99.7934 142.195 99.4705 142.155 98.7978 142.074C98.7439 142.612 98.717 142.868 98.6228 143.405C99.2956 143.486 99.6185 143.526 100.278 143.621H100.264ZM112.912 139.882L113.342 139.735L113.06 139.614C112.966 139.587 112.791 139.587 112.562 139.64L112.508 139.936C112.508 139.936 112.683 139.99 112.912 139.882ZM121.133 132.258C120.339 132.312 119.706 132.474 119.303 132.769C118.886 133.065 118.684 133.455 118.549 133.899C118.495 134.208 118.549 134.665 118.751 135.27C118.751 135.27 119.706 133.374 122.101 133.845C121.307 134.464 120.85 134.786 120.002 135.378H119.975L119.949 135.418L119.881 135.472H119.854L119.827 135.499C118.98 136.117 118.226 136.279 117.607 136.077C117.204 135.862 117.002 135.768 116.625 135.526C116.154 135.243 115.831 135.136 115.051 134.813C114.055 134.396 113.934 134.275 113.934 134.275L114.028 134.181C115.28 132.245 115.872 131.304 117.002 129.341C116.719 128.789 116.598 128.534 116.329 127.982C115.28 129.865 114.701 130.806 113.504 132.648C113.208 133.105 112.979 133.522 112.777 133.899C112.522 134.665 113.221 135.042 113.221 135.042C113.867 135.351 114.19 135.486 114.876 135.768L115.401 135.996C115.926 136.198 116.302 136.427 116.477 136.682L116.652 137.314C116.598 137.556 116.477 137.771 116.275 137.879C115.63 138.282 115.28 138.471 114.647 138.887L114.499 138.968L114.123 139.21C113.88 138.901 113.571 138.672 113.167 138.471C112.696 138.282 112.32 138.242 112.037 138.376L111.714 138.793C111.634 138.968 111.607 139.277 111.634 139.681L111.714 140.272C111.741 140.541 111.795 140.743 111.916 140.904C112.199 141.308 112.562 141.442 113.046 141.388C113.45 141.348 113.867 141.214 114.351 140.945L114.244 141.025C114.446 141.577 114.446 142.262 114.217 143.015C113.988 143.742 113.49 144.32 112.871 144.669L112.495 144.817C112.199 144.871 112.051 144.925 111.741 145.006C111.634 145.248 111.634 145.369 111.593 145.664C112.4 145.637 112.966 145.543 113.288 145.49C113.517 145.463 113.692 145.409 113.732 145.369C114.163 145.221 114.513 145.019 114.782 144.723L115.212 144.145C115.387 143.795 115.495 143.325 115.508 142.652C115.508 142.262 115.482 141.899 115.387 141.577C115.239 141.187 115.132 140.864 115.011 140.541L115.482 140.246L115.603 140.165C116.248 139.788 116.558 139.587 117.177 139.197C117.432 139.035 117.58 138.807 117.728 138.471C117.85 138.121 117.93 137.785 117.93 137.422C118.455 137.516 118.899 137.556 119.222 137.489C119.599 137.462 120.029 137.301 120.473 136.991L120.823 136.736C121.926 135.956 122.478 135.553 123.527 134.759C124.577 133.805 124.954 132.863 125.102 132.245C125.182 131.909 125.182 131.721 125.182 131.721L124.833 131.963C124.537 132.124 124.227 132.191 124.227 132.191C124.133 132.231 123.931 132.272 123.649 132.285C123.568 132.285 123.393 132.285 123.043 132.285C122.236 132.231 121.55 132.231 121.092 132.245L121.133 132.258ZM92.6086 147.977C92.8642 147.722 93.0122 147.547 93.0122 147.547L92.5413 147.587C92.1646 147.587 91.8417 147.493 91.8417 147.493C91.7475 147.493 91.5457 147.412 91.29 147.278C91.2093 147.251 91.0613 147.17 90.7384 146.982C90.0387 146.525 89.4602 146.202 89.0162 145.974C88.2896 145.651 87.6707 145.449 87.1729 145.503C86.6213 145.597 86.2176 145.799 85.8678 146.135C85.5987 146.404 85.4238 146.861 85.222 147.507C85.222 147.507 87.146 146.283 89.0162 147.91C87.6169 148.112 86.9173 148.179 85.518 148.3C85.1682 148.34 85.0202 148.34 84.6972 148.354L84.4012 148.407C84.1187 148.421 83.9707 148.421 83.7016 148.434L83.6747 148.098H83.6209L83.5132 147.48C83.419 147.157 83.2845 146.875 83.1903 146.686H83.1634L82.4907 145.906C82.2081 146.525 82.0601 146.848 81.8179 147.453H81.8718C81.9794 147.547 82.4907 147.95 82.5445 148.515H82.5176C82.235 148.515 82.1139 148.515 81.8718 148.555C81.2663 148.569 80.9703 148.569 80.3783 148.596C80.0016 148.596 79.8266 148.596 79.5037 148.596H78.7772C78.7234 147.318 78.5215 146.458 78.2524 146.027C78.2255 145.947 78.0237 145.678 77.6335 145.194C77.3375 145.839 77.1357 146.162 76.7859 146.807C77.1357 147.076 77.3913 147.332 77.5124 147.628C77.6066 147.856 77.6335 148.179 77.6335 148.596C76.7859 148.569 76.3284 148.569 75.4539 148.528C74.7004 148.502 74.8484 148.434 74.512 148.26C74.1891 148.139 73.7586 147.843 73.3146 147.412C73.2608 148.192 73.2473 148.569 73.1666 149.335C73.4626 149.577 73.772 149.806 74.1084 149.94C73.9066 150.451 73.6375 150.868 73.2338 151.151C72.6822 151.567 71.996 151.904 71.2157 152.051C70.7447 152.159 70.1527 152.226 69.5069 152.226C69.0091 152.226 68.7803 152.24 68.7803 152.293C68.7803 152.401 68.9418 152.562 69.3185 152.791C69.7625 153.073 70.1931 153.221 70.6909 153.262C71.7269 153.369 72.6284 153.141 73.4357 152.549C74.2295 151.93 74.7139 151.137 74.956 150.129H75.3059H75.4001C77.0819 150.223 77.9295 150.236 79.5441 150.223C79.8939 150.223 80.0688 150.223 80.3917 150.209C82.0601 150.182 82.8674 150.129 84.5358 150.008H84.8183C86.8231 149.846 87.7918 149.739 89.7697 149.47C91.2497 149.147 92.1646 148.421 92.6355 147.937L92.6086 147.977ZM76.2612 150.882C75.9382 151.366 75.7902 151.594 75.4942 152.105C76.0728 152.401 76.3957 152.562 77.0146 152.858C77.3106 152.361 77.4855 152.105 77.7815 151.635C77.1626 151.325 76.8801 151.177 76.2612 150.882ZM81.8583 151.567C81.1856 151.298 80.8761 151.177 80.2841 150.882C79.9881 151.393 79.8132 151.648 79.5576 152.172C80.163 152.428 80.4859 152.576 81.1318 152.845C81.4278 152.334 81.5354 152.065 81.8583 151.581V151.567ZM82.4369 150.761C82.1409 151.272 82.0063 151.527 81.7372 152.038C82.3427 152.307 82.6656 152.441 83.2307 152.67C83.5267 152.172 83.7016 151.904 83.9841 151.393C83.3383 151.151 83.0289 151.043 82.4369 150.761ZM88.0878 144.589C88.2896 144.064 88.3838 143.795 88.5587 143.244C88.0071 143.069 87.7111 142.948 87.1325 142.733C86.9038 143.284 86.8096 143.54 86.6078 144.064C87.1864 144.293 87.5093 144.387 88.0878 144.589ZM28.1472 133.213C28.7392 133.065 29.1294 132.971 29.385 132.877C29.7079 132.756 30.0174 132.554 30.2865 132.231C30.6094 131.909 31.0534 131.398 31.6051 130.658C32.2778 129.771 32.7622 129.112 33.0447 128.722C33.7444 127.754 34.0673 127.297 34.8073 126.355C33.9596 126.584 33.4618 126.745 33.3138 126.813C33.0043 126.92 32.7487 127.001 32.5738 127.082C32.0894 127.714 31.6992 128.184 31.5109 128.48C30.0847 130.295 29.1294 131.492 28.5912 132.03L28.3759 132.231L27.905 132.621C28.0127 132.863 28.0396 132.984 28.1472 133.227V133.213ZM39.5433 134.719C40.0815 134.45 40.3506 134.329 40.8484 134.074C40.5121 133.509 40.3641 133.253 40.0681 132.689L38.7764 133.307C39.0724 133.885 39.2339 134.154 39.5433 134.719ZM58.945 143.876C59.3486 143.473 59.5773 143.298 59.9675 142.868C59.4697 142.437 59.2544 142.209 58.797 141.778C58.3799 142.195 58.1646 142.37 57.7475 142.787C58.2319 143.231 58.4741 143.459 58.945 143.876ZM44.1717 137.61C44.6696 137.328 44.9117 137.166 45.423 136.857C45.0328 136.333 44.8579 136.077 44.4946 135.512C44.0237 135.808 43.7681 135.983 43.2568 136.252C43.6066 136.817 43.8219 137.072 44.1583 137.597L44.1717 137.61ZM32.9236 133.953V133.63L32.7352 133.146L32.4258 133.24V133.321L32.5738 133.563L32.9236 133.953ZM43.9968 143.163C44.3197 142.518 44.4946 142.209 44.8445 141.563C45.2212 140.837 45.4096 140.272 45.4768 139.936C45.4903 139.667 45.4096 139.129 45.275 138.323C44.6426 138.726 44.3466 138.928 43.7681 139.318C43.9296 139.882 43.9968 140.245 43.9968 140.407C43.9968 140.609 43.9026 140.877 43.7681 141.173C42.7724 140.635 42.2477 140.367 41.279 139.775C40.9964 139.6 40.8753 139.506 40.5793 139.358C40.3506 139.197 40.243 139.129 40.0277 138.995C39.7855 138.834 39.6106 138.726 39.5299 138.605L39.503 138.363C39.7855 138.592 39.9739 138.766 40.2026 138.901C40.7273 138.578 41.0233 138.417 41.5346 138.094C41.1041 137.744 40.8081 137.529 40.6601 137.395L40.1622 136.951C39.9201 136.723 39.6106 136.373 39.2339 135.889C38.884 135.405 38.5611 135.028 38.3593 134.813C37.7404 134.154 37.108 133.805 36.516 133.737C36.2066 133.697 35.6953 133.832 34.9284 134.087L34.6862 134.154C34.6862 134.154 35.1436 134.222 35.5338 134.477C35.9913 134.759 36.6371 135.176 37.0004 135.553C37.0004 135.553 37.1888 135.714 37.3502 135.943C37.5117 136.091 37.5789 136.252 37.7538 136.507H37.7269C37.5655 136.749 37.3637 137.072 37.0946 136.978L36.5833 136.682C35.9509 136.252 35.6549 136.037 35.036 135.553L34.888 135.432L34.7131 135.324C34.4305 135.109 34.296 135.001 34 134.759L33.7174 134.558C33.9596 134.222 34.0942 133.832 34.148 133.415C34.2153 132.904 34.1211 132.527 33.8654 132.312L33.3273 132.124C33.112 132.124 32.8025 132.191 32.3585 132.312L31.7665 132.541C31.484 132.662 31.2956 132.769 31.1476 132.904C30.8381 133.28 30.7709 133.67 31.0131 134.101C31.188 134.49 31.484 134.854 31.928 135.203L31.8338 135.163C31.3225 135.499 30.5556 135.687 29.6541 135.633C28.7661 135.593 27.9992 135.27 27.3937 134.706L27.0977 134.423C26.9497 134.127 26.8556 133.993 26.6941 133.697H25.9137C26.1963 134.45 26.4519 135.001 26.6268 135.311L26.8959 135.728C27.2054 136.064 27.5821 136.36 27.9992 136.561C28.2279 136.682 28.4836 136.79 28.7527 136.857C29.1967 136.965 29.8021 136.924 30.4883 136.803C30.9323 136.709 31.336 136.575 31.632 136.4C31.9818 136.171 32.3316 135.983 32.6142 135.781L32.9909 136.077L33.7309 136.655C34.0942 136.938 34.2825 137.045 34.6324 137.328C35.0495 137.61 35.2378 137.758 35.628 138.054C36.1796 138.444 36.664 138.618 37.0677 138.605C37.3637 138.605 37.6328 138.457 37.8615 138.229L38.2248 137.798L38.4131 137.449L38.4939 137.328L38.6957 137.556C38.5342 137.798 38.4669 137.906 38.292 138.121C38.0229 138.565 37.9557 138.955 38.0902 139.291C38.2248 139.654 38.5746 140.044 39.1262 140.38C39.3684 140.541 39.476 140.609 39.7317 140.756C39.9873 140.904 40.1757 140.999 40.4582 141.173C41.8441 142.007 42.5437 142.41 44.0103 143.163H43.9968ZM51.2893 141.106C51.7467 140.743 51.9755 140.555 52.4329 140.219C52.0158 139.735 51.8005 139.479 51.3834 139.008C50.926 139.358 50.6838 139.519 50.2398 139.856C50.6434 140.367 50.8587 140.609 51.2893 141.12V141.106ZM52.1235 140.595C52.5136 141.066 52.7155 141.321 53.146 141.805C53.59 141.442 53.8591 141.267 54.3166 140.877C53.886 140.434 53.6707 140.205 53.2402 139.694C52.8231 140.071 52.5809 140.232 52.1235 140.595ZM46.4994 142.585L46.903 142.868L46.8358 142.545L46.5532 142.128L46.2707 142.249L46.4994 142.585ZM67.6636 145.88C67.2465 146.458 67.0447 146.74 66.5872 147.332C66.964 147.789 67.1523 148.139 67.2331 148.286C67.2465 148.488 67.2869 148.744 67.2465 149.093C65.2149 148.77 64.1923 148.582 62.1876 148.152C61.8512 148.058 61.7032 148.018 61.3534 147.937C61.0977 147.87 60.9497 147.843 60.7075 147.775C60.4519 147.708 60.2501 147.668 60.129 147.574L60.0348 147.359C60.3443 147.507 60.6403 147.614 60.8825 147.681C61.2861 147.197 61.5014 146.942 61.905 146.471C61.3534 146.323 61.0035 146.175 60.8421 146.108C60.573 146.001 60.3443 145.893 60.2097 145.839C59.9272 145.718 59.5504 145.476 59.0257 145.14C58.501 144.777 58.0973 144.521 57.8282 144.387C57.0479 143.97 56.3482 143.809 55.7293 143.93C55.4333 143.997 55.0028 144.266 54.3435 144.763L54.1551 144.911C54.1551 144.911 54.5991 144.804 55.07 144.938C55.5813 145.073 56.3079 145.261 56.7519 145.503H56.7788C56.7788 145.503 57.0075 145.611 57.2362 145.759C57.4246 145.866 57.5457 146.001 57.8013 146.135V146.216C57.6937 146.471 57.6264 146.834 57.3573 146.821C57.2093 146.821 57.021 146.794 56.7519 146.7C56.0253 146.471 55.6486 146.35 54.922 146.095L54.7337 146.054L54.5722 145.96C54.2089 145.866 54.0475 145.799 53.7111 145.691C53.1056 145.449 52.8096 145.342 52.2042 145.113L52.3118 144.79V144.763L52.4464 144.172C52.5002 143.822 52.5002 143.526 52.4733 143.298L52.1638 142.303C51.6391 142.747 51.37 142.975 50.8587 143.405V143.432C50.926 143.54 51.1682 143.97 51.1682 144.374L51.0605 144.669C50.63 144.454 50.3878 144.387 49.9438 144.185C49.5536 144.037 49.3787 143.97 48.9885 143.782C48.6656 143.634 48.5041 143.567 48.2081 143.446L47.8314 143.284C47.9794 142.881 48.0198 142.491 47.9794 142.101C47.939 141.577 47.7641 141.227 47.4412 141.066L46.8896 140.999C46.6743 141.052 46.3648 141.2 46.0016 141.415L45.4499 141.765L44.9925 142.276C44.7503 142.706 44.8041 143.069 45.1136 143.486C45.3692 143.782 45.7325 144.091 46.2438 144.333L46.1496 144.293C45.719 144.763 45.0328 145.113 44.1717 145.288C43.3106 145.436 42.463 145.301 41.7364 144.925L41.4404 144.683C41.1848 144.468 41.0772 144.333 40.8484 144.105C40.5524 144.172 40.4179 144.226 40.1353 144.279C40.5524 144.938 40.9292 145.395 41.1713 145.651L41.5481 145.974C41.8844 146.256 42.3284 146.444 42.7724 146.538C43.0281 146.633 43.3241 146.659 43.5797 146.659C44.0237 146.659 44.5888 146.498 45.2616 146.202C45.6517 146.014 46.0016 145.785 46.2303 145.543C46.5398 145.234 46.8358 144.979 47.0645 144.696L47.5219 144.925C47.8449 145.059 48.0063 145.14 48.3158 145.288C50.2263 146.135 51.1816 146.512 53.1595 147.224C53.5227 147.359 53.6842 147.399 54.0206 147.533C54.4646 147.681 54.6664 147.749 55.0835 147.883C55.5813 148.044 55.7966 148.125 56.281 148.26C56.8999 148.461 57.4246 148.488 57.7879 148.327C58.0704 148.233 58.2857 148.031 58.4606 147.722L58.6086 147.224L58.7297 146.821L58.7566 146.686L59.0661 146.861C58.9181 147.157 58.8508 147.332 58.8239 147.426C58.6759 147.95 58.7432 148.354 58.9853 148.676C59.2141 148.972 59.6715 149.255 60.3174 149.389C60.573 149.47 60.7075 149.51 60.9766 149.55C61.313 149.631 61.5014 149.671 61.8243 149.752C64.2999 150.303 65.5781 150.532 68.148 150.868L68.3902 149.08C68.4978 148.273 68.4978 147.695 68.4305 147.318C68.3363 147.063 68.0807 146.592 67.6502 145.893L67.6636 145.88ZM61.7974 152.374C62.201 151.957 62.4297 151.756 62.8468 151.312C62.2548 150.908 61.9992 150.707 61.4072 150.29C60.9901 150.707 60.7748 150.908 60.3443 151.312C60.9363 151.756 61.2054 151.984 61.7974 152.374ZM63.6272 150.707C63.2505 151.137 63.0352 151.339 62.6181 151.756C63.1832 152.186 63.4523 152.374 64.0174 152.778C64.4479 152.361 64.6901 152.132 65.0938 151.715C64.4883 151.312 64.1923 151.11 63.6272 150.707ZM62.5508 152.213C62.1472 152.63 61.9454 152.845 61.5417 153.262C62.1068 153.705 62.4163 153.894 62.9948 154.31C63.385 153.88 63.6003 153.652 64.0039 153.208C63.3985 152.818 63.1025 152.603 62.5374 152.213H62.5508ZM27.0574 90.7091C29.3447 102.69 35.9913 113.165 45.2885 120.452L47.1856 93.1833H50.0783V94.8103H52.2042V93.1833H55.5409V94.8103H57.0479V93.1833H60.7075L61.0439 97.0961H63.7483V99.2476H65.6185V97.0961H69.3455V99.2476H71.2022V97.0961H74.6331V99.2476H76.8397V97.0961H80.0554V99.2476H82.1005V97.0961H85.4507V99.2476H87.9802V97.0961H91.0748L91.4246 93.1833H95.0708V94.8103H96.5643V93.1833H99.9145V94.8103H102.067V93.1833H104.933L106.857 120.869C117.083 113.07 124.227 101.439 126.057 88.1409L104.637 62.4449L98.9861 69.0739L98.7843 69.316L88.5856 82.6682L81.0376 75.6761L69.4262 87.8047L46.3918 66.1695L27.0305 90.7091H27.0574ZM94.4788 70.9833L88.3838 79.3335L80.9568 72.4624L69.3589 84.5776L53.9667 70.1228L60.2501 62.6735L69.8433 71.2523L81.2663 59.8363L94.4922 70.9833H94.4788ZM26.1694 81.3774C26.1694 83.5019 26.3039 85.5726 26.573 87.6299L46.163 62.7945L52.2849 68.5495L60.0079 59.2984L69.5607 67.8503L81.1048 56.3537L96.053 68.9529L104.704 58.7606L126.393 84.9541C126.487 83.7708 126.541 82.5606 126.541 81.3774C126.541 53.9064 103.991 31.5452 76.3553 31.5452C48.7194 31.5452 26.1694 53.9468 26.1694 81.4177V81.3774ZM62.201 109.911L63.2505 121.3H88.8816L89.9311 109.911C88.9355 109.588 74.983 104.989 62.2145 109.911H62.201ZM76.3419 131.169C86.5944 131.169 96.0799 128.103 104.032 122.873H48.6521C56.5904 128.103 66.1029 131.169 76.3553 131.169H76.3419ZM44.2794 122.873C53.146 129.65 64.2865 133.684 76.3419 133.684C88.3973 133.684 99.4839 129.65 108.377 122.873H108.7V122.631C121.065 113.057 129.044 98.1181 129.044 81.3774C129.044 52.508 105.391 29.0172 76.3284 29.0172C47.2663 29.0172 23.6264 52.5484 23.6264 81.4177C23.6264 98.1181 31.5781 113.017 43.9026 122.604V122.913H44.2928L44.2794 122.873ZM69.5742 73.1347C69.8029 73.323 69.8164 73.6591 69.6145 73.8743L69.2378 74.0625L68.8476 73.9281L61.8512 67.6083C61.6359 67.42 61.6225 67.0973 61.7974 66.8687C61.9723 66.6536 62.3086 66.6401 62.5643 66.8284L69.5607 73.1482L69.5742 73.1347ZM69.2378 4.71967L66.2912 3.69775L69.3589 3.133L69.4127 0L70.9331 2.74306L73.9066 1.8556L71.7807 4.10114L73.5837 6.6425L70.7313 5.3382L68.8611 7.79889L69.2513 4.73312L69.2378 4.71967ZM71.8211 23.4504C66.2778 21.8234 62.8199 16.5525 63.2774 11.0664C63.8156 14.912 66.5334 18.3139 70.5295 19.5107C76.0055 21.1377 81.7238 18.0585 83.3921 12.6396C84.8856 7.5703 82.3023 2.25899 77.499 0.255481C77.9295 0.349605 78.3197 0.430283 78.6965 0.578193C85.1009 2.44724 88.7202 9.10318 86.8231 15.423C84.8991 21.7697 78.1986 25.3598 71.8211 23.4504Z" fill="#049E73"/>
</svg>
