<?xml version="1.0" encoding="utf-8"?>
<svg xmlns="http://www.w3.org/2000/svg" data-name="Ebene 1" id="Ebene_1" version="1.1" viewBox="0 0 500 500">
  <defs>
    <style>
      .cls-1 {
        fill: #172774;
      }

      .cls-1, .cls-2 {
        stroke-width: 0px;
      }

      .cls-2 {
        fill: #fff;
      }
    </style>
  </defs>
  <circle class="cls-1" cx="249.64" cy="249.77" r="250"/>
  <g>
    <path class="cls-2" d="M302.46,233.87l-18.52-72.78c-2.49-9.78-6.5-17.08-12.01-21.88-5.52-4.81-12.63-7.21-21.35-7.21s-15.66,2.45-21.35,7.33c-5.7,4.9-9.88,12.33-12.55,22.3l-18.53,72.28-22.05-97.91h-38.7l25.09,107.05c1.6,6.76,4.27,12.32,8.01,16.68s8.14,7.6,13.21,9.73c5.07,2.14,10.1,3.22,15.08,3.22,7.83,0,14.72-2.45,20.69-7.35,5.96-4.88,10.19-12.23,12.68-22.02l18.19-73.26,18.38,73.26c2.49,9.78,6.67,17.14,12.55,22.02,5.87,4.9,12.81,7.35,20.82,7.35,4.98,0,9.97-1.08,14.95-3.22,4.98-2.13,9.34-5.37,13.08-9.73,3.74-4.36,6.41-9.92,8.01-16.68l23.76-107.05h-38.17l-21.26,97.88Z"/>
    <path class="cls-2" d="M249.64,384.29c-59.66,0-115.56-31.99-145.89-83.47l35.65-20.99c22.92,38.91,65.16,63.09,110.23,63.09s87.31-24.17,110.23-63.09l35.65,20.99c-30.33,51.48-86.23,83.47-145.88,83.47Z"/>
  </g>
</svg>